<?xml version="1.0" encoding="UTF-8"?>
<svg xmlns="http://www.w3.org/2000/svg" xmlns:xlink="http://www.w3.org/1999/xlink" width="130px" height="130px" viewBox="0 0 130 130" version="1.1">
<g id="surface1">
<rect x="0" y="0" width="130" height="130" style="fill:rgb(96.862745%,96.862745%,96.862745%);fill-opacity:1;stroke:none;"/>
<path style=" stroke:none;fill-rule:nonzero;fill:rgb(100%,94.901961%,83.137255%);fill-opacity:1;" d="M 0 95.421875 L 130 95.421875 L 130 130 L 0 130 Z M 0 95.421875 "/>
<path style=" stroke:none;fill-rule:nonzero;fill:rgb(79.607843%,54.509804%,16.470588%);fill-opacity:1;" d="M 19.136719 92.726562 L 19.078125 93.515625 L 18.96875 94.941406 L 18.222656 104.648438 C 18.222656 105.113281 15.585938 105.488281 12.332031 105.488281 C 11.429688 105.488281 10.578125 105.457031 9.8125 105.40625 C 7.820312 105.273438 6.4375 104.984375 6.4375 104.648438 L 5.953125 98.335938 L 5.523438 92.726562 Z M 19.136719 92.726562 "/>
<path style=" stroke:none;fill-rule:nonzero;fill:rgb(92.54902%,69.411765%,12.156863%);fill-opacity:1;" d="M 16.53125 95.425781 C 15.386719 95.558594 15.246094 97.414062 15.136719 101.253906 C 15.03125 105.09375 16.988281 105.121094 17.339844 103.886719 C 17.6875 102.648438 18.894531 95.160156 16.53125 95.425781 Z M 16.53125 95.425781 "/>
<path style=" stroke:none;fill-rule:nonzero;fill:rgb(73.333333%,48.235294%,16.470588%);fill-opacity:1;" d="M 5.523438 92.726562 L 5.953125 98.335938 L 6.4375 104.648438 C 6.4375 104.984375 7.820312 105.273438 9.8125 105.40625 C 8.367188 104.9375 7.855469 103.761719 7.691406 100.609375 C 7.496094 96.878906 6.542969 94.945312 12.332031 94.863281 C 16.351562 94.808594 18.277344 94 19.078125 93.511719 L 19.136719 92.726562 Z M 5.523438 92.726562 "/>
<path style=" stroke:none;fill-rule:nonzero;fill:rgb(79.607843%,54.509804%,16.470588%);fill-opacity:1;" d="M 4.878906 91.464844 L 4.878906 92.726562 C 4.878906 93.3125 8.214844 93.789062 12.328125 93.789062 C 16.007812 93.789062 19.0625 93.40625 19.667969 92.910156 C 19.742188 92.851562 19.78125 92.789062 19.78125 92.726562 L 19.78125 91.464844 Z M 4.878906 91.464844 "/>
<path style=" stroke:none;fill-rule:nonzero;fill:rgb(92.54902%,69.411765%,12.156863%);fill-opacity:1;" d="M 16.847656 92.417969 C 15.964844 92.554688 15.644531 92.675781 15.710938 93.171875 C 15.78125 93.667969 17.65625 93.441406 17.835938 93.0625 C 18.015625 92.6875 17.984375 92.246094 16.847656 92.417969 Z M 16.847656 92.417969 "/>
<path style=" stroke:none;fill-rule:nonzero;fill:rgb(92.54902%,69.411765%,12.156863%);fill-opacity:1;" d="M 19.78125 91.46875 C 19.78125 91.609375 19.582031 91.746094 19.21875 91.871094 C 18.101562 92.253906 15.4375 92.527344 12.332031 92.527344 C 9.21875 92.527344 6.558594 92.253906 5.441406 91.871094 C 5.082031 91.746094 4.878906 91.609375 4.878906 91.46875 C 4.878906 90.878906 8.214844 90.40625 12.332031 90.40625 C 16.445312 90.40625 19.78125 90.878906 19.78125 91.46875 Z M 19.78125 91.46875 "/>
<path style=" stroke:none;fill-rule:nonzero;fill:rgb(73.333333%,48.235294%,16.470588%);fill-opacity:1;" d="M 19.21875 91.871094 C 18.101562 92.253906 15.4375 92.527344 12.332031 92.527344 C 9.21875 92.527344 6.558594 92.253906 5.441406 91.871094 C 6.558594 91.484375 9.21875 91.214844 12.332031 91.214844 C 15.4375 91.214844 18.101562 91.484375 19.21875 91.871094 Z M 19.21875 91.871094 "/>
<path style=" stroke:none;fill-rule:nonzero;fill:rgb(84.705882%,42.745098%,15.294118%);fill-opacity:1;" d="M 12.222656 90.066406 C 12.222656 90.066406 10.632812 89.378906 9.140625 86.0625 C 7.597656 82.625 9.886719 82.90625 9.125 79.75 C 8.332031 76.484375 9.914062 75.304688 10.445312 72.828125 C 10.992188 70.289062 11.085938 68.503906 12.714844 68.871094 C 14.335938 69.238281 14.027344 72.082031 15.359375 73.53125 C 16.667969 74.960938 15.863281 77.199219 15.585938 79.382812 C 15.316406 81.519531 16.910156 81.449219 16.890625 83.785156 C 16.871094 86.0625 15.339844 89.113281 12.222656 90.066406 Z M 12.222656 90.066406 "/>
<path style=" stroke:none;fill-rule:nonzero;fill:rgb(39.607843%,21.176471%,9.019608%);fill-opacity:1;" d="M 15.960938 82.933594 C 15.859375 82.867188 15.726562 82.898438 15.660156 83.007812 C 15.648438 83.027344 14.503906 84.882812 12.898438 85.960938 C 12.929688 85.253906 12.953125 84.546875 12.964844 83.84375 C 12.96875 83.824219 12.96875 83.808594 12.964844 83.792969 C 12.984375 82.726562 12.976562 81.679688 12.957031 80.683594 C 14.132812 79.589844 15.148438 78.042969 15.191406 77.976562 C 15.265625 77.867188 15.238281 77.714844 15.140625 77.640625 C 15.039062 77.5625 14.898438 77.589844 14.828125 77.703125 C 14.816406 77.714844 13.960938 79.023438 12.945312 80.058594 C 12.929688 79.410156 12.90625 78.789062 12.878906 78.199219 C 12.878906 78.1875 12.878906 78.175781 12.878906 78.160156 C 12.851562 77.554688 12.820312 76.984375 12.789062 76.464844 C 13.714844 75.589844 14.375 74.339844 14.402344 74.285156 C 14.464844 74.164062 14.425781 74.011719 14.316406 73.945312 C 14.207031 73.875 14.070312 73.917969 14.003906 74.039062 C 14 74.050781 13.480469 75.039062 12.75 75.832031 C 12.644531 74.269531 12.546875 73.277344 12.542969 73.242188 C 12.527344 73.105469 12.414062 73.003906 12.289062 73.019531 C 12.164062 73.035156 12.070312 73.160156 12.085938 73.300781 C 12.089844 73.34375 12.273438 75.097656 12.402344 77.640625 C 11.597656 76.800781 10.726562 75.492188 10.71875 75.476562 C 10.644531 75.367188 10.5 75.339844 10.398438 75.417969 C 10.296875 75.496094 10.277344 75.652344 10.351562 75.761719 C 10.398438 75.835938 11.511719 77.507812 12.4375 78.320312 C 12.503906 79.789062 12.550781 81.476562 12.539062 83.230469 C 11.296875 81.773438 10.253906 80.128906 10.242188 80.109375 C 10.171875 80 10.035156 79.972656 9.933594 80.042969 C 9.832031 80.113281 9.808594 80.261719 9.875 80.371094 C 9.886719 80.390625 11.128906 82.339844 12.53125 83.898438 C 12.507812 85.355469 12.441406 86.847656 12.308594 88.28125 C 10.992188 86.949219 9.9375 84.964844 9.925781 84.945312 C 9.867188 84.835938 9.738281 84.792969 9.632812 84.851562 C 9.527344 84.910156 9.488281 85.046875 9.546875 85.15625 C 9.597656 85.25 10.777344 87.457031 12.257812 88.824219 C 12.1875 89.507812 12.101562 90.171875 11.996094 90.8125 C 11.980469 90.929688 12.054688 91.035156 12.167969 91.054688 C 12.179688 91.058594 12.191406 91.058594 12.203125 91.058594 C 12.304688 91.058594 12.394531 90.984375 12.410156 90.882812 C 12.636719 89.503906 12.78125 88.011719 12.867188 86.5 C 14.695312 85.402344 15.96875 83.339844 16.023438 83.25 C 16.089844 83.140625 16.0625 83 15.960938 82.933594 Z M 15.960938 82.933594 "/>
<path style=" stroke:none;fill-rule:nonzero;fill:rgb(93.333333%,50.196078%,13.333333%);fill-opacity:1;" d="M 12.550781 86.980469 C 11.417969 86.191406 11.601562 86.308594 11.402344 84.199219 C 11.195312 82.039062 10.097656 82.71875 9.195312 82.027344 C 8.289062 81.332031 9.148438 80.109375 8.34375 79.164062 C 7.527344 78.210938 6.796875 79.09375 5.363281 77.425781 C 3.90625 75.726562 2.730469 77.996094 3.09375 79.304688 C 3.453125 80.597656 2.335938 81.628906 3.113281 82.890625 C 3.878906 84.132812 2.964844 84.367188 3.933594 85.917969 C 4.886719 87.445312 4.71875 87.25 4.671875 89.261719 C 4.632812 90.851562 5.683594 91.035156 6.800781 91.839844 C 8.257812 91.839844 10.6875 91.839844 13.105469 91.839844 C 13.996094 90.324219 14.300781 88.195312 12.550781 86.980469 Z M 12.550781 86.980469 "/>
<path style=" stroke:none;fill-rule:nonzero;fill:rgb(39.607843%,21.176471%,9.019608%);fill-opacity:1;" d="M 9.972656 84.722656 C 9.988281 84.601562 9.90625 84.484375 9.789062 84.464844 C 9.667969 84.445312 9.558594 84.53125 9.542969 84.652344 C 9.539062 84.671875 9.304688 86.367188 8.84375 88.003906 C 8.1875 86.617188 7.605469 85.265625 7.117188 84.078125 C 7.566406 83.066406 7.851562 81.308594 7.863281 81.230469 C 7.882812 81.101562 7.800781 80.980469 7.679688 80.957031 C 7.558594 80.929688 7.445312 81.015625 7.425781 81.140625 C 7.425781 81.15625 7.210938 82.503906 6.875 83.480469 C 6.054688 81.429688 5.558594 79.992188 5.546875 79.957031 C 5.503906 79.832031 5.378906 79.761719 5.261719 79.804688 C 5.148438 79.84375 5.089844 79.976562 5.132812 80.101562 C 5.140625 80.128906 5.417969 80.933594 5.902344 82.195312 C 5.039062 81.851562 4.285156 81.289062 4.277344 81.285156 C 4.171875 81.207031 4.035156 81.230469 3.96875 81.335938 C 3.902344 81.4375 3.929688 81.585938 4.03125 81.660156 C 4.074219 81.691406 5.054688 82.417969 6.121094 82.753906 C 6.285156 83.175781 6.472656 83.636719 6.671875 84.128906 C 6.675781 84.136719 6.679688 84.148438 6.683594 84.15625 C 6.878906 84.625 7.085938 85.121094 7.308594 85.632812 C 6.117188 85.199219 4.96875 84.503906 4.957031 84.496094 C 4.851562 84.429688 4.722656 84.464844 4.664062 84.574219 C 4.605469 84.679688 4.644531 84.816406 4.75 84.882812 C 4.808594 84.917969 6.191406 85.753906 7.542969 86.175781 C 7.898438 86.980469 8.285156 87.820312 8.695312 88.667969 C 8.699219 88.679688 8.703125 88.691406 8.710938 88.703125 C 8.980469 89.253906 9.257812 89.808594 9.546875 90.359375 C 7.84375 90.085938 6.253906 89.046875 6.238281 89.035156 C 6.136719 88.96875 6.007812 88.996094 5.945312 89.09375 C 5.886719 89.191406 5.917969 89.324219 6.015625 89.390625 C 6.09375 89.441406 7.886719 90.613281 9.789062 90.816406 C 9.972656 91.160156 10.160156 91.503906 10.355469 91.839844 C 10.511719 91.839844 10.671875 91.839844 10.832031 91.839844 C 10.226562 90.785156 9.652344 89.675781 9.117188 88.578125 C 9.679688 86.789062 9.96875 84.746094 9.972656 84.722656 Z M 9.972656 84.722656 "/>
<path style=" stroke:none;fill-rule:nonzero;fill:rgb(39.607843%,21.176471%,9.019608%);fill-opacity:1;" d="M 11.851562 88.226562 C 11.734375 88.222656 11.632812 88.308594 11.625 88.425781 C 11.625 88.449219 11.511719 90.296875 10.984375 91.839844 C 11.132812 91.839844 11.277344 91.839844 11.425781 91.839844 C 11.933594 90.285156 12.042969 88.542969 12.046875 88.457031 C 12.054688 88.335938 11.964844 88.234375 11.851562 88.226562 Z M 11.851562 88.226562 "/>
<path style=" stroke:none;fill-rule:nonzero;fill:rgb(93.333333%,50.196078%,13.333333%);fill-opacity:1;" d="M 21.929688 78.152344 C 22.332031 76.011719 21.261719 75.6875 19.335938 77.070312 C 16.871094 78.839844 16.753906 81.097656 15.933594 81.910156 C 15.125 82.710938 14.152344 82.40625 13.8125 84.59375 C 13.480469 86.730469 11.421875 86.292969 12.003906 90.089844 C 12.109375 90.765625 12.230469 91.347656 12.378906 91.839844 C 14.640625 91.839844 16.976562 91.839844 18.582031 91.839844 C 20.039062 90.34375 19.46875 88.703125 21.324219 85.519531 C 23.742188 81.371094 21.71875 79.277344 21.929688 78.152344 Z M 21.929688 78.152344 "/>
<path style=" stroke:none;fill-rule:nonzero;fill:rgb(39.607843%,21.176471%,9.019608%);fill-opacity:1;" d="M 18.546875 84.019531 C 18.765625 83.488281 18.964844 82.988281 19.144531 82.53125 C 20.292969 82.171875 21.351562 81.386719 21.398438 81.351562 C 21.5 81.277344 21.527344 81.128906 21.460938 81.027344 C 21.394531 80.921875 21.253906 80.898438 21.152344 80.976562 C 21.144531 80.984375 20.3125 81.605469 19.359375 81.972656 C 19.890625 80.59375 20.195312 79.707031 20.207031 79.675781 C 20.25 79.550781 20.191406 79.417969 20.074219 79.378906 C 19.960938 79.335938 19.832031 79.40625 19.789062 79.53125 C 19.777344 79.570312 19.238281 81.144531 18.34375 83.378906 C 17.972656 82.320312 17.734375 80.828125 17.730469 80.808594 C 17.710938 80.683594 17.597656 80.597656 17.476562 80.625 C 17.355469 80.648438 17.277344 80.773438 17.296875 80.898438 C 17.308594 80.984375 17.617188 82.886719 18.101562 83.972656 C 17.574219 85.265625 16.941406 86.734375 16.230469 88.238281 C 15.722656 86.46875 15.460938 84.617188 15.460938 84.59375 C 15.441406 84.472656 15.332031 84.386719 15.214844 84.40625 C 15.09375 84.425781 15.011719 84.542969 15.03125 84.664062 C 15.035156 84.6875 15.347656 86.890625 15.957031 88.808594 C 15.464844 89.828125 14.9375 90.851562 14.386719 91.839844 C 14.546875 91.839844 14.703125 91.839844 14.863281 91.839844 C 14.980469 91.625 15.097656 91.410156 15.210938 91.195312 C 17.253906 90.980469 19.179688 89.726562 19.261719 89.667969 C 19.363281 89.605469 19.394531 89.472656 19.332031 89.375 C 19.269531 89.277344 19.140625 89.25 19.042969 89.316406 C 19.023438 89.328125 17.296875 90.457031 15.453125 90.742188 C 15.765625 90.144531 16.070312 89.539062 16.359375 88.9375 C 16.367188 88.925781 16.375 88.914062 16.378906 88.898438 C 16.820312 87.988281 17.234375 87.085938 17.617188 86.21875 C 19.070312 85.765625 20.558594 84.863281 20.625 84.824219 C 20.730469 84.757812 20.769531 84.621094 20.710938 84.515625 C 20.652344 84.40625 20.523438 84.371094 20.417969 84.4375 C 20.402344 84.445312 19.144531 85.207031 17.851562 85.675781 C 18.09375 85.113281 18.324219 84.570312 18.535156 84.054688 C 18.539062 84.042969 18.542969 84.03125 18.546875 84.019531 Z M 18.546875 84.019531 "/>
<path style=" stroke:none;fill-rule:nonzero;fill:rgb(39.607843%,21.176471%,9.019608%);fill-opacity:1;" d="M 13.003906 88.449219 C 12.886719 88.457031 12.796875 88.558594 12.804688 88.679688 C 12.8125 88.761719 12.914062 90.3125 13.34375 91.839844 C 13.488281 91.839844 13.632812 91.839844 13.777344 91.839844 C 13.332031 90.304688 13.230469 88.671875 13.226562 88.648438 C 13.222656 88.53125 13.121094 88.445312 13.003906 88.449219 Z M 13.003906 88.449219 "/>
<path style=" stroke:none;fill-rule:nonzero;fill:rgb(79.607843%,54.509804%,16.470588%);fill-opacity:1;" d="M 113.34375 93.515625 L 113.398438 94.253906 L 113.503906 95.59375 L 114.199219 104.703125 C 114.199219 105.136719 116.675781 105.488281 119.730469 105.488281 C 120.578125 105.488281 121.375 105.460938 122.089844 105.410156 C 123.960938 105.285156 125.257812 105.015625 125.257812 104.703125 L 125.714844 98.78125 L 126.117188 93.515625 Z M 113.34375 93.515625 "/>
<path style=" stroke:none;fill-rule:nonzero;fill:rgb(92.54902%,69.411765%,12.156863%);fill-opacity:1;" d="M 115.785156 96.046875 C 116.863281 96.171875 116.996094 97.914062 117.097656 101.515625 C 117.199219 105.117188 115.359375 105.144531 115.03125 103.984375 C 114.703125 102.824219 113.570312 95.796875 115.785156 96.046875 Z M 115.785156 96.046875 "/>
<path style=" stroke:none;fill-rule:nonzero;fill:rgb(73.333333%,48.235294%,16.470588%);fill-opacity:1;" d="M 126.113281 93.515625 L 125.710938 98.777344 L 125.257812 104.703125 C 125.257812 105.015625 123.960938 105.285156 122.089844 105.410156 C 123.449219 104.972656 123.925781 103.867188 124.082031 100.910156 C 124.265625 97.410156 125.160156 95.59375 119.726562 95.519531 C 115.957031 95.464844 114.152344 94.710938 113.398438 94.25 L 113.34375 93.515625 Z M 126.113281 93.515625 "/>
<path style=" stroke:none;fill-rule:nonzero;fill:rgb(79.607843%,54.509804%,16.470588%);fill-opacity:1;" d="M 126.71875 92.332031 L 126.71875 93.515625 C 126.71875 94.066406 123.589844 94.511719 119.730469 94.511719 C 116.277344 94.511719 113.414062 94.152344 112.84375 93.683594 C 112.773438 93.632812 112.738281 93.574219 112.738281 93.515625 L 112.738281 92.332031 Z M 126.71875 92.332031 "/>
<path style=" stroke:none;fill-rule:nonzero;fill:rgb(92.54902%,69.411765%,12.156863%);fill-opacity:1;" d="M 115.492188 93.226562 C 116.320312 93.355469 116.621094 93.464844 116.558594 93.933594 C 116.492188 94.398438 114.730469 94.183594 114.5625 93.832031 C 114.394531 93.480469 114.425781 93.0625 115.492188 93.226562 Z M 115.492188 93.226562 "/>
<path style=" stroke:none;fill-rule:nonzero;fill:rgb(92.54902%,69.411765%,12.156863%);fill-opacity:1;" d="M 112.738281 92.332031 C 112.738281 92.464844 112.925781 92.59375 113.269531 92.710938 C 114.316406 93.070312 116.816406 93.328125 119.730469 93.328125 C 122.648438 93.328125 125.148438 93.070312 126.195312 92.710938 C 126.53125 92.59375 126.71875 92.464844 126.71875 92.332031 C 126.71875 91.78125 123.589844 91.335938 119.730469 91.335938 C 115.871094 91.335938 112.738281 91.78125 112.738281 92.332031 Z M 112.738281 92.332031 "/>
<path style=" stroke:none;fill-rule:nonzero;fill:rgb(73.333333%,48.235294%,16.470588%);fill-opacity:1;" d="M 113.269531 92.710938 C 114.316406 93.070312 116.816406 93.328125 119.726562 93.328125 C 122.648438 93.328125 125.148438 93.070312 126.195312 92.710938 C 125.148438 92.351562 122.648438 92.09375 119.726562 92.09375 C 116.816406 92.09375 114.316406 92.351562 113.269531 92.710938 Z M 113.269531 92.710938 "/>
<path style=" stroke:none;fill-rule:nonzero;fill:rgb(84.705882%,42.745098%,15.294118%);fill-opacity:1;" d="M 119.828125 91.019531 C 119.828125 91.019531 121.324219 90.371094 122.722656 87.261719 C 124.171875 84.035156 122.019531 84.300781 122.738281 81.339844 C 123.480469 78.273438 121.996094 77.171875 121.496094 74.847656 C 120.984375 72.464844 120.898438 70.789062 119.371094 71.132812 C 117.847656 71.476562 118.136719 74.144531 116.890625 75.507812 C 115.660156 76.847656 116.417969 78.945312 116.675781 80.996094 C 116.929688 83 115.433594 82.933594 115.453125 85.125 C 115.46875 87.261719 116.90625 90.125 119.828125 91.019531 Z M 119.828125 91.019531 "/>
<path style=" stroke:none;fill-rule:nonzero;fill:rgb(39.607843%,21.176471%,9.019608%);fill-opacity:1;" d="M 116.324219 84.328125 C 116.417969 84.261719 116.546875 84.292969 116.605469 84.394531 C 116.617188 84.414062 117.691406 86.15625 119.199219 87.167969 C 119.167969 86.503906 119.144531 85.839844 119.132812 85.179688 C 119.132812 85.164062 119.132812 85.148438 119.132812 85.132812 C 119.117188 84.132812 119.121094 83.152344 119.140625 82.214844 C 118.039062 81.191406 117.085938 79.738281 117.046875 79.675781 C 116.976562 79.574219 117 79.429688 117.09375 79.359375 C 117.191406 79.289062 117.320312 79.316406 117.386719 79.417969 C 117.398438 79.429688 118.203125 80.660156 119.152344 81.628906 C 119.167969 81.019531 119.191406 80.4375 119.214844 79.886719 C 119.214844 79.875 119.214844 79.863281 119.214844 79.851562 C 119.242188 79.277344 119.269531 78.746094 119.300781 78.253906 C 118.429688 77.4375 117.8125 76.265625 117.785156 76.214844 C 117.726562 76.101562 117.761719 75.957031 117.863281 75.894531 C 117.96875 75.828125 118.097656 75.867188 118.15625 75.980469 C 118.164062 75.992188 118.648438 76.917969 119.335938 77.664062 C 119.433594 76.195312 119.527344 75.265625 119.53125 75.234375 C 119.542969 75.105469 119.648438 75.011719 119.769531 75.027344 C 119.886719 75.039062 119.972656 75.160156 119.957031 75.289062 C 119.953125 75.332031 119.785156 76.976562 119.660156 79.363281 C 120.417969 78.574219 121.234375 77.347656 121.242188 77.332031 C 121.3125 77.226562 121.445312 77.203125 121.542969 77.277344 C 121.636719 77.351562 121.65625 77.496094 121.589844 77.601562 C 121.542969 77.667969 120.5 79.234375 119.628906 80 C 119.566406 81.378906 119.523438 82.960938 119.535156 84.605469 C 120.699219 83.238281 121.679688 81.695312 121.6875 81.679688 C 121.753906 81.578125 121.882812 81.546875 121.976562 81.617188 C 122.074219 81.683594 122.097656 81.820312 122.03125 81.921875 C 122.019531 81.941406 120.855469 83.769531 119.542969 85.230469 C 119.5625 86.601562 119.625 88 119.75 89.347656 C 120.984375 88.09375 121.976562 86.234375 121.984375 86.214844 C 122.039062 86.113281 122.164062 86.074219 122.261719 86.128906 C 122.359375 86.183594 122.394531 86.308594 122.339844 86.410156 C 122.292969 86.503906 121.183594 88.574219 119.796875 89.855469 C 119.863281 90.496094 119.945312 91.121094 120.042969 91.722656 C 120.058594 91.828125 119.988281 91.929688 119.878906 91.949219 C 119.867188 91.949219 119.859375 91.949219 119.847656 91.949219 C 119.753906 91.949219 119.671875 91.882812 119.65625 91.785156 C 119.441406 90.492188 119.304688 89.089844 119.226562 87.671875 C 117.511719 86.644531 116.316406 84.707031 116.261719 84.621094 C 116.203125 84.523438 116.230469 84.390625 116.324219 84.328125 Z M 116.324219 84.328125 "/>
<path style=" stroke:none;fill-rule:nonzero;fill:rgb(93.333333%,50.196078%,13.333333%);fill-opacity:1;" d="M 119.523438 88.121094 C 120.585938 87.382812 120.414062 87.492188 120.601562 85.515625 C 120.796875 83.488281 121.824219 84.125 122.671875 83.476562 C 123.523438 82.824219 122.714844 81.675781 123.472656 80.789062 C 124.234375 79.894531 124.921875 80.722656 126.265625 79.15625 C 127.632812 77.5625 128.738281 79.695312 128.394531 80.921875 C 128.058594 82.132812 129.109375 83.101562 128.378906 84.285156 C 127.660156 85.453125 128.519531 85.671875 127.609375 87.125 C 126.714844 88.558594 126.871094 88.375 126.914062 90.261719 C 126.949219 91.757812 125.96875 91.925781 124.917969 92.683594 C 123.550781 92.683594 121.273438 92.683594 119 92.683594 C 118.167969 91.261719 117.882812 89.265625 119.523438 88.121094 Z M 119.523438 88.121094 "/>
<path style=" stroke:none;fill-rule:nonzero;fill:rgb(39.607843%,21.176471%,9.019608%);fill-opacity:1;" d="M 121.945312 86.007812 C 121.929688 85.890625 122.003906 85.78125 122.117188 85.765625 C 122.226562 85.746094 122.332031 85.824219 122.347656 85.941406 C 122.347656 85.957031 122.566406 87.546875 123.003906 89.082031 C 123.617188 87.78125 124.164062 86.515625 124.621094 85.398438 C 124.199219 84.449219 123.933594 82.800781 123.921875 82.726562 C 123.902344 82.609375 123.980469 82.492188 124.09375 82.46875 C 124.207031 82.449219 124.3125 82.523438 124.332031 82.644531 C 124.332031 82.660156 124.53125 83.921875 124.847656 84.839844 C 125.621094 82.914062 126.082031 81.566406 126.09375 81.53125 C 126.132812 81.414062 126.253906 81.351562 126.363281 81.390625 C 126.46875 81.425781 126.523438 81.550781 126.484375 81.667969 C 126.476562 81.695312 126.214844 82.453125 125.761719 83.632812 C 126.570312 83.3125 127.28125 82.785156 127.289062 82.777344 C 127.382812 82.707031 127.511719 82.726562 127.574219 82.824219 C 127.636719 82.921875 127.613281 83.058594 127.515625 83.132812 C 127.476562 83.160156 126.554688 83.84375 125.558594 84.15625 C 125.402344 84.554688 125.226562 84.984375 125.039062 85.445312 C 125.035156 85.457031 125.03125 85.464844 125.027344 85.476562 C 124.847656 85.914062 124.652344 86.378906 124.445312 86.859375 C 125.558594 86.453125 126.636719 85.800781 126.648438 85.792969 C 126.746094 85.730469 126.871094 85.765625 126.925781 85.863281 C 126.976562 85.964844 126.941406 86.09375 126.84375 86.152344 C 126.785156 86.1875 125.488281 86.972656 124.222656 87.371094 C 123.890625 88.125 123.527344 88.914062 123.140625 89.707031 C 123.136719 89.71875 123.132812 89.730469 123.125 89.738281 C 122.875 90.257812 122.613281 90.777344 122.34375 91.292969 C 123.9375 91.039062 125.429688 90.0625 125.445312 90.050781 C 125.539062 89.988281 125.664062 90.015625 125.71875 90.105469 C 125.777344 90.199219 125.746094 90.324219 125.65625 90.386719 C 125.582031 90.433594 123.898438 91.53125 122.117188 91.722656 C 121.941406 92.042969 121.765625 92.367188 121.585938 92.683594 C 121.4375 92.683594 121.289062 92.683594 121.136719 92.683594 C 121.707031 91.695312 122.246094 90.652344 122.746094 89.621094 C 122.214844 87.945312 121.945312 86.027344 121.945312 86.007812 Z M 121.945312 86.007812 "/>
<path style=" stroke:none;fill-rule:nonzero;fill:rgb(39.607843%,21.176471%,9.019608%);fill-opacity:1;" d="M 120.179688 89.292969 C 120.289062 89.289062 120.386719 89.367188 120.390625 89.480469 C 120.390625 89.5 120.5 91.234375 120.992188 92.683594 C 120.855469 92.683594 120.71875 92.683594 120.578125 92.683594 C 120.101562 91.226562 120 89.585938 119.996094 89.507812 C 119.988281 89.394531 120.070312 89.296875 120.179688 89.292969 Z M 120.179688 89.292969 "/>
<path style=" stroke:none;fill-rule:nonzero;fill:rgb(93.333333%,50.196078%,13.333333%);fill-opacity:1;" d="M 110.722656 79.839844 C 110.34375 77.832031 111.351562 77.527344 113.15625 78.824219 C 115.46875 80.484375 115.582031 82.605469 116.347656 83.363281 C 117.109375 84.117188 118.023438 83.832031 118.339844 85.882812 C 118.652344 87.886719 120.582031 87.476562 120.035156 91.042969 C 119.9375 91.671875 119.824219 92.21875 119.683594 92.683594 C 117.5625 92.683594 115.371094 92.683594 113.863281 92.683594 C 112.496094 91.277344 113.03125 89.742188 111.289062 86.753906 C 109.023438 82.859375 110.921875 80.894531 110.722656 79.839844 Z M 110.722656 79.839844 "/>
<path style=" stroke:none;fill-rule:nonzero;fill:rgb(39.607843%,21.176471%,9.019608%);fill-opacity:1;" d="M 113.894531 85.347656 C 113.691406 84.847656 113.503906 84.378906 113.335938 83.949219 C 112.261719 83.613281 111.265625 82.875 111.222656 82.84375 C 111.128906 82.769531 111.101562 82.632812 111.164062 82.535156 C 111.226562 82.4375 111.355469 82.417969 111.453125 82.488281 C 111.460938 82.496094 112.242188 83.078125 113.132812 83.425781 C 112.636719 82.132812 112.351562 81.300781 112.339844 81.269531 C 112.300781 81.152344 112.355469 81.027344 112.464844 80.992188 C 112.570312 80.953125 112.691406 81.015625 112.730469 81.132812 C 112.746094 81.171875 113.25 82.648438 114.089844 84.742188 C 114.4375 83.75 114.660156 82.347656 114.664062 82.332031 C 114.679688 82.214844 114.789062 82.136719 114.902344 82.160156 C 115.015625 82.183594 115.089844 82.296875 115.070312 82.417969 C 115.058594 82.496094 114.769531 84.28125 114.316406 85.300781 C 114.8125 86.511719 115.40625 87.894531 116.070312 89.304688 C 116.546875 87.644531 116.792969 85.90625 116.792969 85.886719 C 116.8125 85.769531 116.914062 85.691406 117.023438 85.710938 C 117.136719 85.726562 117.214844 85.835938 117.195312 85.953125 C 117.195312 85.972656 116.898438 88.039062 116.328125 89.839844 C 116.789062 90.796875 117.28125 91.757812 117.800781 92.683594 C 117.652344 92.683594 117.503906 92.683594 117.355469 92.683594 C 117.246094 92.480469 117.136719 92.28125 117.027344 92.078125 C 115.113281 91.878906 113.304688 90.699219 113.226562 90.648438 C 113.132812 90.585938 113.105469 90.460938 113.160156 90.367188 C 113.21875 90.277344 113.339844 90.253906 113.433594 90.3125 C 113.449219 90.324219 115.070312 91.386719 116.800781 91.652344 C 116.507812 91.09375 116.222656 90.527344 115.949219 89.960938 C 115.941406 89.949219 115.9375 89.9375 115.929688 89.925781 C 115.515625 89.070312 115.128906 88.222656 114.773438 87.410156 C 113.40625 86.984375 112.007812 86.136719 111.949219 86.097656 C 111.851562 86.039062 111.8125 85.910156 111.867188 85.808594 C 111.921875 85.710938 112.042969 85.675781 112.144531 85.738281 C 112.15625 85.746094 113.335938 86.460938 114.550781 86.898438 C 114.320312 86.371094 114.109375 85.863281 113.910156 85.378906 C 113.90625 85.367188 113.898438 85.359375 113.894531 85.347656 Z M 113.894531 85.347656 "/>
<path style=" stroke:none;fill-rule:nonzero;fill:rgb(39.607843%,21.176471%,9.019608%);fill-opacity:1;" d="M 119.097656 89.5 C 119.207031 89.507812 119.292969 89.605469 119.285156 89.714844 C 119.28125 89.792969 119.183594 91.25 118.78125 92.683594 C 118.644531 92.683594 118.507812 92.683594 118.371094 92.683594 C 118.789062 91.242188 118.886719 89.710938 118.886719 89.691406 C 118.894531 89.578125 118.988281 89.496094 119.097656 89.5 Z M 119.097656 89.5 "/>
<path style=" stroke:none;fill-rule:nonzero;fill:rgb(84.705882%,43.137255%,15.294118%);fill-opacity:1;" d="M 80.070312 112.980469 C 80.003906 112.980469 79.941406 112.96875 79.882812 112.949219 C 79.578125 112.855469 79.332031 112.542969 79.269531 112.132812 L 74.085938 78.742188 L 73.996094 78.191406 L 76.882812 77.011719 L 80.871094 111.769531 C 80.945312 112.410156 80.566406 112.980469 80.070312 112.980469 Z M 80.070312 112.980469 "/>
<path style=" stroke:none;fill-rule:nonzero;fill:rgb(78.823529%,35.686275%,15.686275%);fill-opacity:1;" d="M 75.890625 78.007812 L 74.082031 78.742188 L 79.269531 112.132812 C 79.335938 112.542969 79.578125 112.855469 79.882812 112.949219 C 79.882812 112.886719 79.882812 112.828125 79.875 112.765625 Z M 75.890625 78.007812 "/>
<path style=" stroke:none;fill-rule:nonzero;fill:rgb(84.705882%,43.137255%,15.294118%);fill-opacity:1;" d="M 66.488281 78.191406 L 61.210938 112.132812 C 61.136719 112.625 60.804688 112.980469 60.417969 112.980469 C 60.144531 112.980469 59.914062 112.808594 59.765625 112.550781 C 59.640625 112.335938 59.578125 112.058594 59.609375 111.769531 L 63.542969 77.515625 L 63.597656 77.011719 Z M 66.488281 78.191406 "/>
<path style=" stroke:none;fill-rule:nonzero;fill:rgb(78.823529%,35.686275%,15.686275%);fill-opacity:1;" d="M 65.1875 78.1875 L 63.539062 77.515625 L 59.609375 111.769531 C 59.578125 112.0625 59.640625 112.335938 59.765625 112.550781 C 59.835938 112.429688 59.886719 112.289062 59.914062 112.132812 Z M 65.1875 78.1875 "/>
<path style=" stroke:none;fill-rule:nonzero;fill:rgb(78.823529%,35.686275%,15.686275%);fill-opacity:1;" d="M 71.980469 112.980469 C 71.730469 112.980469 71.503906 112.828125 71.351562 112.589844 C 71.269531 112.460938 71.210938 112.308594 71.183594 112.132812 L 65.910156 78.191406 L 67.597656 77.5 L 68.796875 77.011719 L 72.785156 111.769531 C 72.855469 112.410156 72.476562 112.980469 71.980469 112.980469 Z M 71.980469 112.980469 "/>
<path style=" stroke:none;fill-rule:nonzero;fill:rgb(73.72549%,31.764706%,15.294118%);fill-opacity:1;" d="M 71.527344 111.769531 L 67.597656 77.5 L 65.910156 78.1875 L 71.183594 112.132812 C 71.210938 112.308594 71.269531 112.460938 71.351562 112.589844 C 71.492188 112.371094 71.5625 112.078125 71.527344 111.769531 Z M 71.527344 111.769531 "/>
<path style=" stroke:none;fill-rule:nonzero;fill:rgb(78.823529%,35.686275%,15.686275%);fill-opacity:1;" d="M 58.398438 78.191406 L 53.125 112.132812 C 53.046875 112.625 52.714844 112.980469 52.328125 112.980469 C 52.070312 112.980469 51.847656 112.828125 51.699219 112.589844 C 51.5625 112.371094 51.488281 112.078125 51.523438 111.769531 L 55.457031 77.5 L 55.511719 77.011719 Z M 58.398438 78.191406 "/>
<path style=" stroke:none;fill-rule:nonzero;fill:rgb(73.72549%,31.764706%,15.294118%);fill-opacity:1;" d="M 57.140625 78.1875 L 55.453125 77.5 L 51.523438 111.769531 C 51.488281 112.078125 51.558594 112.371094 51.699219 112.589844 C 51.78125 112.460938 51.839844 112.308594 51.867188 112.132812 Z M 57.140625 78.1875 "/>
<path style=" stroke:none;fill-rule:nonzero;fill:rgb(96.862745%,61.960784%,47.45098%);fill-opacity:1;" d="M 34.789062 102.238281 L 34.632812 103.511719 L 34.382812 105.582031 C 34.382812 105.582031 34.777344 106.660156 36.140625 106.695312 C 36.339844 105.679688 36.320312 104.957031 36.320312 104.957031 C 36.320312 104.957031 36.339844 105.679688 36.140625 106.695312 C 36.164062 106.695312 36.183594 106.699219 36.207031 106.699219 C 37.625 106.699219 38.03125 106.140625 38.03125 106.140625 L 38.546875 103.886719 L 38.941406 102.136719 Z M 34.789062 102.238281 "/>
<path style=" stroke:none;fill-rule:nonzero;fill:rgb(90.196078%,54.901961%,41.960784%);fill-opacity:1;" d="M 34.789062 102.238281 L 34.632812 103.511719 C 35.359375 103.699219 36.871094 104.078125 38.542969 103.886719 L 38.941406 102.136719 Z M 34.789062 102.238281 "/>
<path style=" stroke:none;fill-rule:nonzero;fill:rgb(100%,80%,38.039216%);fill-opacity:1;" d="M 38.511719 111.179688 C 38.421875 111.179688 36.109375 111.308594 33.539062 111.382812 C 32.484375 111.414062 31.382812 111.4375 30.382812 111.4375 C 26.9375 111.4375 25.871094 110.828125 25.871094 110.828125 L 25.871094 109.359375 L 26.378906 109.207031 C 26.378906 109.207031 31.53125 109.359375 35.113281 109.484375 C 37.003906 109.550781 38.460938 109.609375 38.488281 109.636719 C 38.5625 109.710938 38.636719 111.179688 38.511719 111.179688 Z M 38.511719 111.179688 "/>
<path style=" stroke:none;fill-rule:nonzero;fill:rgb(97.647059%,67.45098%,10.196078%);fill-opacity:1;" d="M 38.488281 109.636719 C 38.460938 109.609375 37.003906 109.550781 35.113281 109.484375 C 34.726562 110.152344 34.214844 110.804688 33.539062 111.382812 C 36.109375 111.308594 38.421875 111.179688 38.511719 111.179688 C 38.636719 111.183594 38.5625 109.710938 38.488281 109.636719 Z M 38.488281 109.636719 "/>
<path style=" stroke:none;fill-rule:nonzero;fill:rgb(97.647059%,67.45098%,10.196078%);fill-opacity:1;" d="M 38.488281 109.636719 C 38.488281 109.636719 37.761719 109.878906 34.820312 109.945312 C 34.324219 109.960938 33.769531 109.96875 33.140625 109.96875 C 28.785156 109.96875 26.808594 110.015625 25.871094 109.359375 C 25.871094 109.359375 25.59375 107.535156 28.40625 107.382812 C 31.21875 107.230469 33.269531 105.480469 34.179688 104.417969 C 34.179688 104.417969 34.839844 105.761719 36.15625 105.761719 C 36.195312 105.761719 36.238281 105.761719 36.277344 105.757812 C 37.542969 105.726562 38.613281 105.230469 38.613281 105.230469 C 38.613281 105.230469 38.636719 108.015625 38.488281 109.636719 Z M 38.488281 109.636719 "/>
<path style=" stroke:none;fill-rule:nonzero;fill:rgb(89.803922%,57.647059%,6.27451%);fill-opacity:1;" d="M 38.613281 105.230469 C 38.613281 105.230469 37.542969 105.726562 36.277344 105.757812 C 36.183594 106.722656 35.863281 108.410156 34.820312 109.945312 C 37.761719 109.878906 38.488281 109.636719 38.488281 109.636719 C 38.636719 108.015625 38.613281 105.230469 38.613281 105.230469 Z M 38.613281 105.230469 "/>
<path style=" stroke:none;fill-rule:nonzero;fill:rgb(52.54902%,20.392157%,11.764706%);fill-opacity:1;" d="M 66.691406 76.570312 C 63.246094 78.292969 44.503906 81.652344 44.503906 81.652344 C 43.996094 84.742188 39.804688 102.796875 39.804688 102.796875 C 38.933594 103.195312 37.992188 103.320312 37.085938 103.304688 C 34.875 103.257812 32.914062 102.339844 32.914062 102.339844 C 33.269531 100.871094 35.699219 74.730469 37.726562 73.566406 C 39.019531 72.824219 45.808594 70.886719 50.5625 69.578125 C 53.261719 68.835938 55.308594 68.296875 55.308594 68.296875 C 55.308594 68.296875 64.171875 65.765625 65.589844 67.03125 C 67.011719 68.296875 70.136719 74.847656 66.691406 76.570312 Z M 66.691406 76.570312 "/>
<path style=" stroke:none;fill-rule:nonzero;fill:rgb(46.666667%,16.078431%,9.019608%);fill-opacity:1;" d="M 65.589844 67.03125 C 64.171875 65.765625 55.304688 68.296875 55.304688 68.296875 C 55.304688 68.296875 53.261719 68.835938 50.5625 69.578125 C 51.980469 69.730469 54.445312 70.1875 55.726562 71.585938 C 57.589844 73.625 48.054688 76.265625 46.582031 77.78125 C 45.109375 79.300781 41.773438 80.253906 41.125 80.6875 C 40.472656 81.121094 43.375 81.164062 43.375 81.164062 C 43.375 81.164062 41.125 82.941406 41.296875 83.675781 C 41.46875 84.414062 43.507812 83.15625 43.507812 83.15625 C 43.507812 83.15625 40.734375 97.195312 38.78125 100.230469 C 38.039062 101.386719 37.488281 102.441406 37.085938 103.304688 C 37.988281 103.320312 38.933594 103.195312 39.804688 102.796875 C 39.804688 102.796875 43.996094 84.742188 44.503906 81.652344 C 44.503906 81.652344 63.246094 78.292969 66.691406 76.570312 C 70.136719 74.847656 67.007812 68.296875 65.589844 67.03125 Z M 65.589844 67.03125 "/>
<path style=" stroke:none;fill-rule:nonzero;fill:rgb(96.862745%,61.960784%,47.45098%);fill-opacity:1;" d="M 48.398438 105.007812 L 47.914062 106.246094 L 47.25 107.945312 C 47.25 107.945312 46.542969 108.792969 45.121094 108.589844 C 43.707031 108.386719 43.738281 107.273438 43.738281 107.273438 L 44.25 105.621094 L 44.582031 104.535156 Z M 48.398438 105.007812 "/>
<path style=" stroke:none;fill-rule:nonzero;fill:rgb(90.196078%,54.901961%,41.960784%);fill-opacity:1;" d="M 47.914062 106.246094 L 48.398438 105.007812 L 44.582031 104.535156 L 44.25 105.617188 C 44.5625 105.753906 45.859375 106.761719 47.914062 106.246094 Z M 47.914062 106.246094 "/>
<path style=" stroke:none;fill-rule:nonzero;fill:rgb(97.647059%,67.45098%,10.196078%);fill-opacity:1;" d="M 47.960938 106.664062 C 47.960938 106.664062 47.828125 108.320312 47.6875 109.027344 C 47.601562 109.484375 47.230469 110.472656 46.984375 111.101562 C 46.847656 111.453125 46.746094 111.695312 46.746094 111.695312 C 46.746094 111.695312 45.359375 113.285156 44.546875 114.53125 C 44.027344 115.335938 43.257812 116.1875 42.046875 116.613281 C 41.375 116.847656 40.5625 116.949219 39.582031 116.832031 C 37.128906 116.527344 36.203125 115.382812 36.402344 114.105469 C 36.425781 113.957031 36.457031 113.808594 36.511719 113.65625 C 37.019531 112.203125 40.328125 110.71875 41.578125 109.332031 C 42.824219 107.945312 43.570312 106.394531 43.570312 106.394531 C 43.570312 106.394531 44.71875 107.613281 45.761719 107.710938 C 46.164062 107.75 46.582031 107.605469 46.941406 107.414062 C 47.523438 107.101562 47.960938 106.664062 47.960938 106.664062 Z M 47.960938 106.664062 "/>
<path style=" stroke:none;fill-rule:nonzero;fill:rgb(89.803922%,57.647059%,6.27451%);fill-opacity:1;" d="M 46.941406 107.414062 C 46.933594 108.058594 46.757812 109.117188 45.910156 110.304688 C 44.570312 112.191406 42.828125 114.300781 42.046875 116.613281 C 43.253906 116.191406 44.027344 115.335938 44.546875 114.53125 C 45.359375 113.285156 46.746094 111.695312 46.746094 111.695312 C 46.746094 111.695312 46.847656 111.453125 46.984375 111.105469 C 47.230469 110.472656 47.605469 109.488281 47.6875 109.027344 C 47.828125 108.320312 47.960938 106.664062 47.960938 106.664062 C 47.960938 106.664062 47.523438 107.101562 46.941406 107.414062 Z M 46.941406 107.414062 "/>
<path style=" stroke:none;fill-rule:nonzero;fill:rgb(100%,80%,38.039216%);fill-opacity:1;" d="M 46.980469 111.105469 C 46.847656 111.453125 46.746094 111.695312 46.746094 111.695312 C 46.746094 111.695312 45.359375 113.285156 44.546875 114.53125 C 44.027344 115.335938 43.257812 116.191406 42.046875 116.613281 C 41.375 116.847656 40.566406 116.949219 39.585938 116.832031 C 37.132812 116.527344 36.203125 115.382812 36.402344 114.105469 C 36.945312 114.667969 38.039062 115.484375 39.957031 115.613281 C 41.101562 115.691406 41.894531 115.644531 42.511719 115.464844 C 43.5 115.175781 44.027344 114.550781 44.75 113.554688 C 45.5625 112.441406 46.484375 111.554688 46.980469 111.105469 Z M 46.980469 111.105469 "/>
<path style=" stroke:none;fill-rule:nonzero;fill:rgb(97.647059%,67.45098%,10.196078%);fill-opacity:1;" d="M 44.75 113.554688 C 44.023438 114.550781 43.5 115.175781 42.515625 115.464844 C 42.335938 115.839844 42.179688 116.222656 42.046875 116.613281 C 43.257812 116.191406 44.027344 115.335938 44.550781 114.535156 C 45.359375 113.285156 46.746094 111.695312 46.746094 111.695312 C 46.746094 111.695312 46.847656 111.453125 46.980469 111.105469 C 46.484375 111.554688 45.5625 112.441406 44.75 113.554688 Z M 44.75 113.554688 "/>
<path style=" stroke:none;fill-rule:nonzero;fill:rgb(52.54902%,20.392157%,11.764706%);fill-opacity:1;" d="M 74.765625 71.089844 C 72.902344 68.796875 69.128906 67.070312 64.933594 68.449219 C 64.933594 68.449219 52.316406 76.25 50.441406 78.074219 C 48.566406 79.898438 43.652344 104.011719 43.605469 104.367188 C 43.570312 104.601562 44.351562 105.246094 45.890625 105.488281 C 46.695312 105.621094 47.703125 105.640625 48.921875 105.433594 C 48.921875 105.433594 57.992188 85.320312 58.496094 84.40625 C 58.496094 84.40625 74.863281 78.277344 75.875 74.933594 C 76.230469 73.753906 75.78125 72.335938 74.765625 71.089844 Z M 74.765625 71.089844 "/>
<path style=" stroke:none;fill-rule:nonzero;fill:rgb(46.666667%,16.078431%,9.019608%);fill-opacity:1;" d="M 75.042969 71.433594 L 75.035156 71.441406 C 75.011719 71.414062 74.996094 71.386719 74.972656 71.355469 C 75.019531 71.40625 75.042969 71.433594 75.042969 71.433594 Z M 75.042969 71.433594 "/>
<path style=" stroke:none;fill-rule:nonzero;fill:rgb(46.666667%,16.078431%,9.019608%);fill-opacity:1;" d="M 75.035156 71.441406 C 75.011719 71.414062 74.996094 71.386719 74.972656 71.355469 C 74.972656 71.355469 74.96875 71.351562 74.964844 71.347656 C 74.917969 71.292969 74.839844 71.214844 74.742188 71.113281 C 73.636719 70 69.53125 66.542969 63.441406 69.355469 C 63.441406 69.355469 70.304688 67.546875 72.445312 73.152344 C 70.460938 74.800781 67.695312 76.828125 64.480469 78.453125 C 57.914062 81.769531 55.054688 82.289062 53.429688 82.875 C 51.804688 83.460938 57.003906 83.980469 57.003906 83.980469 C 57.003906 83.980469 51.738281 86.773438 52.195312 87.621094 C 52.648438 88.464844 54.859375 88.203125 54.859375 88.203125 C 54.859375 88.203125 50.515625 102.417969 45.890625 105.488281 C 46.695312 105.621094 47.703125 105.640625 48.921875 105.433594 C 48.921875 105.433594 57.992188 85.320312 58.496094 84.40625 C 58.496094 84.40625 74.863281 78.277344 75.875 74.933594 C 76.199219 73.863281 75.859375 72.597656 75.035156 71.441406 Z M 75.035156 71.441406 "/>
<path style=" stroke:none;fill-rule:nonzero;fill:rgb(46.666667%,16.078431%,9.019608%);fill-opacity:1;" d="M 74.964844 71.347656 C 74.917969 71.292969 74.839844 71.214844 74.742188 71.113281 C 74.75 71.105469 74.757812 71.097656 74.765625 71.089844 C 74.835938 71.175781 74.902344 71.261719 74.964844 71.347656 Z M 74.964844 71.347656 "/>
<path style=" stroke:none;fill-rule:nonzero;fill:rgb(95.686275%,50.196078%,25.490196%);fill-opacity:1;" d="M 53.785156 34.40625 C 53.785156 34.40625 51.539062 36.785156 50.730469 40.097656 C 49.917969 43.40625 45.460938 58.671875 45.527344 60.359375 C 45.597656 62.050781 46.136719 63.671875 50.460938 63.671875 C 54.78125 63.671875 55.1875 39.421875 55.59375 36.382812 C 56 33.34375 54.882812 33.511719 53.785156 34.40625 Z M 53.785156 34.40625 "/>
<path style=" stroke:none;fill-rule:nonzero;fill:rgb(84.705882%,43.137255%,15.294118%);fill-opacity:1;" d="M 77.476562 72.785156 C 76.667969 75.15625 75.519531 75.625 75.519531 75.625 C 75.789062 72.855469 72.410156 69.210938 67.886719 68.875 C 63.363281 68.535156 60.859375 71.035156 59.238281 70.964844 C 57.617188 70.898438 56.847656 69.394531 54.550781 69.191406 C 52.253906 68.992188 50.605469 69.566406 50.605469 69.566406 C 50.605469 69.566406 50.707031 68.449219 50.84375 67.636719 C 50.976562 66.824219 52.621094 61.761719 52.214844 57.355469 C 51.988281 54.863281 52.261719 48.214844 52.6875 42.699219 C 53.015625 38.472656 53.433594 34.910156 53.789062 34.402344 C 54.328125 33.632812 58.382812 31.882812 61.027344 30.804688 C 62.34375 30.269531 63.3125 29.898438 63.3125 29.898438 C 64.601562 29.773438 66.613281 30.203125 68.652344 30.847656 C 72.164062 31.953125 75.746094 33.691406 75.789062 34.285156 C 75.804688 34.457031 75.851562 35.082031 75.921875 36.035156 C 76.261719 40.417969 77.121094 51.761719 77.34375 57.589844 C 77.613281 64.683594 78.289062 70.425781 77.476562 72.785156 Z M 77.476562 72.785156 "/>
<path style=" stroke:none;fill-rule:nonzero;fill:rgb(95.686275%,50.196078%,25.490196%);fill-opacity:1;" d="M 60.675781 33.824219 C 61.359375 35.851562 64.296875 35.902344 65.917969 34.914062 C 67.34375 34.046875 68.492188 32.261719 68.648438 30.84375 C 66.613281 30.203125 64.601562 29.773438 63.308594 29.898438 C 63.308594 29.898438 62.34375 30.269531 61.023438 30.804688 C 60.652344 31.496094 60.265625 32.601562 60.675781 33.824219 Z M 60.675781 33.824219 "/>
<path style=" stroke:none;fill-rule:nonzero;fill:rgb(80%,38.039216%,15.686275%);fill-opacity:1;" d="M 77.476562 72.785156 C 76.667969 75.15625 75.519531 75.625 75.519531 75.625 C 75.789062 72.855469 72.410156 69.210938 67.886719 68.875 C 63.363281 68.535156 60.859375 71.035156 59.238281 70.964844 C 57.617188 70.898438 56.847656 69.394531 54.550781 69.191406 C 52.253906 68.992188 50.605469 69.566406 50.605469 69.566406 C 50.605469 69.566406 50.707031 68.449219 50.84375 67.636719 C 50.976562 66.824219 52.621094 61.761719 52.214844 57.355469 C 51.988281 54.863281 52.261719 48.214844 52.6875 42.699219 C 52.78125 47.816406 53.597656 53.410156 56.421875 55.8125 C 62.226562 60.753906 69.679688 53.820312 68.378906 54.164062 C 67.078125 54.515625 57.546875 56.679688 64.914062 52.261719 C 69.875 49.28125 73.855469 41.074219 75.921875 36.035156 C 76.261719 40.417969 77.121094 51.761719 77.34375 57.589844 C 77.382812 58.667969 77.4375 59.710938 77.488281 60.714844 C 77.574219 62.339844 77.667969 63.867188 77.738281 65.261719 C 77.914062 68.703125 77.964844 71.363281 77.476562 72.785156 Z M 77.476562 72.785156 "/>
<path style=" stroke:none;fill-rule:nonzero;fill:rgb(76.470588%,31.372549%,15.294118%);fill-opacity:1;" d="M 76.484375 60.882812 C 72.625 61.488281 60.796875 60.753906 60.839844 62.789062 C 60.882812 64.828125 65.910156 65.996094 70.589844 65.996094 C 73.695312 65.996094 76.320312 65.558594 77.738281 65.261719 C 77.667969 63.867188 77.574219 62.339844 77.488281 60.714844 C 77.175781 60.769531 76.84375 60.828125 76.484375 60.882812 Z M 76.484375 60.882812 "/>
<path style=" stroke:none;fill-rule:nonzero;fill:rgb(84.705882%,43.137255%,15.294118%);fill-opacity:1;" d="M 67.113281 62.664062 C 67.113281 62.664062 64.515625 63.105469 63.285156 62.214844 C 62.90625 61.941406 62.660156 61.496094 62.515625 61 C 62.1875 59.878906 62.367188 58.472656 62.679688 57.980469 C 63.128906 57.265625 65.199219 56.652344 65.199219 56.652344 C 65.199219 56.652344 66.085938 56.542969 67.058594 57.726562 C 67.195312 57.898438 67.335938 58.09375 67.476562 58.324219 C 68.597656 60.136719 67.699219 62.28125 67.113281 62.664062 Z M 67.113281 62.664062 "/>
<path style=" stroke:none;fill-rule:nonzero;fill:rgb(80%,38.039216%,15.686275%);fill-opacity:1;" d="M 67.480469 58.324219 C 67.339844 58.09375 67.199219 57.898438 67.058594 57.730469 C 67.0625 57.738281 67.070312 57.75 67.074219 57.761719 C 67.855469 59.808594 66.03125 61.894531 63.867188 61.539062 C 63.390625 61.457031 62.933594 61.3125 62.585938 61.0625 C 62.5625 61.042969 62.539062 61.019531 62.515625 61 C 62.660156 61.5 62.90625 61.941406 63.285156 62.214844 C 64.515625 63.105469 67.113281 62.664062 67.113281 62.664062 C 67.699219 62.277344 68.597656 60.136719 67.480469 58.324219 Z M 67.480469 58.324219 "/>
<path style=" stroke:none;fill-rule:nonzero;fill:rgb(95.686275%,50.196078%,25.490196%);fill-opacity:1;" d="M 78.332031 38.207031 C 76.609375 34.683594 75.921875 33.957031 75.054688 34.078125 C 74.625 34.136719 74.253906 34.398438 73.996094 34.746094 C 73.257812 35.738281 71.65625 38.308594 71.632812 41.90625 C 71.605469 45.742188 73.113281 52.101562 73.648438 54.242188 C 73.765625 54.707031 73.835938 54.976562 73.835938 54.976562 C 73.835938 54.976562 67.453125 55.308594 66.488281 55.585938 C 66.417969 55.605469 66.355469 55.625 66.296875 55.648438 C 65.480469 55.96875 65.199219 56.652344 65.199219 56.652344 C 65.199219 56.652344 66.359375 56.507812 67.476562 58.324219 C 67.742188 58.753906 67.890625 59.199219 67.960938 59.640625 C 68.183594 61.054688 67.558594 62.371094 67.113281 62.664062 C 67.113281 62.664062 69.976562 63.390625 73.363281 63.40625 C 76.746094 63.421875 81.011719 62.847656 81.398438 60.03125 C 81.414062 59.902344 81.429688 59.75 81.4375 59.578125 C 81.660156 55.910156 80.390625 42.410156 78.332031 38.207031 Z M 78.332031 38.207031 "/>
<path style=" stroke:none;fill-rule:nonzero;fill:rgb(96.470588%,58.823529%,40%);fill-opacity:1;" d="M 76.179688 34.773438 C 76.179688 34.773438 78.878906 38.835938 79.496094 43.226562 C 80.113281 47.613281 80.957031 52.617188 80.601562 53.332031 C 80.242188 54.046875 78.324219 44.234375 77.351562 40.59375 C 76.375 36.953125 75.011719 33.863281 76.179688 34.773438 Z M 76.179688 34.773438 "/>
<path style=" stroke:none;fill-rule:nonzero;fill:rgb(96.470588%,58.823529%,40%);fill-opacity:1;" d="M 66.863281 56.007812 C 66.328125 56.023438 70.871094 57.851562 75.140625 57.65625 C 79.410156 57.460938 76.246094 55.769531 66.863281 56.007812 Z M 66.863281 56.007812 "/>
<path style=" stroke:none;fill-rule:nonzero;fill:rgb(84.705882%,43.137255%,15.294118%);fill-opacity:1;" d="M 67.960938 59.640625 C 68.1875 61.054688 67.558594 62.371094 67.113281 62.664062 C 67.113281 62.664062 69.976562 63.390625 73.363281 63.40625 C 76.746094 63.421875 81.011719 62.847656 81.398438 60.03125 C 81.414062 59.902344 81.429688 59.75 81.4375 59.578125 C 81.308594 59.65625 81.171875 59.730469 81.023438 59.800781 C 77.546875 61.445312 70.566406 60.195312 67.960938 59.640625 Z M 67.960938 59.640625 "/>
<path style=" stroke:none;fill-rule:nonzero;fill:rgb(90.980392%,47.843137%,22.745098%);fill-opacity:1;" d="M 73.546875 55.769531 C 76.40625 56.128906 76.894531 56.386719 77.511719 56.289062 C 78.128906 56.191406 74.621094 55.085938 74.621094 55.085938 C 74.621094 55.085938 77.773438 54.828125 78.066406 54.664062 C 78.324219 54.519531 76.261719 54.273438 73.648438 54.242188 C 73.765625 54.707031 73.835938 54.976562 73.835938 54.976562 C 73.835938 54.976562 67.453125 55.308594 66.488281 55.585938 C 66.421875 55.605469 66.355469 55.625 66.296875 55.648438 C 68.289062 55.597656 71.605469 55.527344 73.546875 55.769531 Z M 73.546875 55.769531 "/>
<path style=" stroke:none;fill-rule:nonzero;fill:rgb(80%,38.039216%,15.686275%);fill-opacity:1;" d="M 63.195312 58.203125 C 63.195312 58.203125 62.886719 58.992188 62.871094 59.945312 C 62.859375 60.898438 63.246094 61.90625 64.410156 62.1875 C 65.570312 62.46875 65.945312 60.667969 65.472656 59.460938 C 65 58.257812 63.355469 57.738281 63.195312 58.203125 Z M 63.195312 58.203125 "/>
<path style=" stroke:none;fill-rule:nonzero;fill:rgb(96.862745%,61.960784%,47.45098%);fill-opacity:1;" d="M 64.898438 62.800781 C 64.058594 63.203125 62.445312 63.050781 62.445312 63.050781 C 62.445312 63.050781 62.050781 63.347656 61.542969 63.597656 C 61.316406 63.707031 61.066406 63.804688 60.820312 63.859375 C 60.328125 63.96875 59.824219 64.085938 59.351562 64.042969 C 59.222656 64.03125 59.097656 64.007812 58.976562 63.96875 C 58.808594 63.921875 58.648438 63.84375 58.492188 63.734375 C 58.40625 63.675781 58.332031 63.613281 58.261719 63.558594 C 58.164062 63.472656 58.082031 63.394531 58.007812 63.316406 C 57.707031 63 57.617188 62.765625 57.617188 62.765625 C 57.617188 62.765625 57.082031 62.953125 56.558594 62.644531 C 56.277344 62.484375 56.441406 62.210938 56.601562 61.957031 C 56.613281 61.941406 56.621094 61.925781 56.628906 61.914062 C 56.800781 61.644531 58.75 59.335938 59.214844 59.1875 C 59.683594 59.039062 61.582031 58.296875 62.472656 58.277344 C 63.363281 58.261719 64.539062 58.894531 65.230469 59.980469 C 65.347656 60.167969 65.4375 60.359375 65.507812 60.554688 C 65.835938 61.496094 65.59375 62.46875 64.898438 62.800781 Z M 64.898438 62.800781 "/>
<path style=" stroke:none;fill-rule:nonzero;fill:rgb(90.196078%,54.901961%,41.960784%);fill-opacity:1;" d="M 65.507812 60.554688 C 65.347656 61.101562 64.980469 61.917969 64.1875 62.214844 C 62.953125 62.683594 62.339844 62.671875 62.339844 62.671875 C 62.339844 62.671875 62.054688 63.160156 61.542969 63.59375 C 62.050781 63.351562 62.445312 63.050781 62.445312 63.050781 C 62.445312 63.050781 64.058594 63.203125 64.898438 62.800781 C 65.59375 62.46875 65.835938 61.496094 65.507812 60.554688 Z M 65.507812 60.554688 "/>
<path style=" stroke:none;fill-rule:nonzero;fill:rgb(90.196078%,54.901961%,41.960784%);fill-opacity:1;" d="M 59.386719 60.871094 C 59.386719 60.871094 58.265625 61.90625 57.574219 62.109375 C 57.148438 62.234375 56.804688 62.085938 56.601562 61.957031 C 56.441406 62.210938 56.277344 62.484375 56.554688 62.644531 C 57.082031 62.953125 57.613281 62.765625 57.613281 62.765625 C 57.738281 62.4375 59.386719 60.871094 59.386719 60.871094 Z M 59.386719 60.871094 "/>
<path style=" stroke:none;fill-rule:nonzero;fill:rgb(90.196078%,54.901961%,41.960784%);fill-opacity:1;" d="M 60.199219 61.894531 L 58.011719 63.320312 C 58.011719 63.320312 58.011719 63.320312 58.007812 63.320312 C 58.082031 63.394531 58.164062 63.472656 58.261719 63.554688 C 58.234375 63.519531 58.214844 63.492188 58.214844 63.492188 Z M 60.199219 61.894531 "/>
<path style=" stroke:none;fill-rule:nonzero;fill:rgb(90.196078%,54.901961%,41.960784%);fill-opacity:1;" d="M 59.304688 63.976562 C 59.328125 63.871094 60.839844 62.839844 60.839844 62.839844 C 60.839844 62.839844 59.507812 63.703125 58.976562 63.96875 C 59.097656 64.007812 59.222656 64.03125 59.351562 64.042969 C 59.320312 64.019531 59.300781 63.996094 59.304688 63.976562 Z M 59.304688 63.976562 "/>
<path style=" stroke:none;fill-rule:nonzero;fill:rgb(100%,67.45098%,56.078431%);fill-opacity:1;" d="M 59.679688 59.269531 C 59.679688 59.269531 60.167969 59.183594 60.222656 59.800781 C 60.277344 60.417969 60.992188 59.789062 61.132812 60.417969 C 61.273438 61.046875 61.542969 60.882812 61.816406 61.347656 C 62.085938 61.816406 62.011719 62.085938 62.445312 62.152344 C 62.875 62.214844 64.871094 60.589844 64.609375 59.691406 C 64.351562 58.792969 62.953125 58.390625 62.539062 58.347656 C 62.128906 58.304688 59.679688 59.269531 59.679688 59.269531 Z M 59.679688 59.269531 "/>
<path style=" stroke:none;fill-rule:nonzero;fill:rgb(94.509804%,70.588235%,16.470588%);fill-opacity:1;" d="M 67.261719 79.265625 C 66.5 80.472656 66.453125 81.417969 66.453125 81.417969 C 75.371094 81.417969 78.367188 77.332031 79.324219 73.988281 C 76.152344 78.597656 69.769531 79.210938 67.261719 79.265625 Z M 67.261719 79.265625 "/>
<path style=" stroke:none;fill-rule:nonzero;fill:rgb(96.862745%,61.960784%,47.45098%);fill-opacity:1;" d="M 67.796875 30.785156 C 67.796875 30.785156 67.289062 33.265625 64.578125 34.175781 C 61.867188 35.089844 60.929688 33.1875 61.511719 31.515625 C 61.769531 30.777344 61.945312 29.90625 62.058594 29.175781 C 62.199219 28.253906 62.246094 27.542969 62.246094 27.542969 C 62.980469 25.792969 67.03125 21.992188 67.160156 23.71875 C 67.191406 24.148438 67.246094 24.804688 67.3125 25.550781 C 67.507812 27.777344 67.796875 30.785156 67.796875 30.785156 Z M 67.796875 30.785156 "/>
<path style=" stroke:none;fill-rule:nonzero;fill:rgb(90.196078%,54.901961%,41.960784%);fill-opacity:1;" d="M 67.3125 25.550781 C 67.246094 24.804688 67.191406 24.148438 67.160156 23.714844 C 67.035156 21.996094 62.980469 25.792969 62.246094 27.542969 C 62.246094 27.542969 62.199219 28.253906 62.058594 29.171875 C 65.804688 29 66.957031 26.894531 67.3125 25.550781 Z M 67.3125 25.550781 "/>
<path style=" stroke:none;fill-rule:nonzero;fill:rgb(96.862745%,61.960784%,47.45098%);fill-opacity:1;" d="M 67.011719 24.273438 C 67.011719 24.273438 67.011719 25.492188 66.046875 26.90625 C 65.082031 28.328125 60.929688 28.328125 59.359375 27.3125 C 57.789062 26.300781 58.75 23.5625 58.851562 20.21875 C 58.886719 19.109375 59 18.136719 59.226562 17.324219 C 59.359375 16.851562 59.53125 16.441406 59.742188 16.085938 C 60.269531 15.21875 61.070312 14.722656 62.246094 14.699219 C 62.246094 14.699219 67.160156 14.140625 67.363281 17.03125 C 67.566406 19.914062 67.011719 24.273438 67.011719 24.273438 Z M 67.011719 24.273438 "/>
<path style=" stroke:none;fill-rule:nonzero;fill:rgb(39.607843%,21.568627%,9.803922%);fill-opacity:1;" d="M 61.5 22.28125 C 61.167969 22.28125 60.707031 22.226562 60.523438 21.9375 C 60.394531 21.734375 60.421875 21.484375 60.601562 21.195312 C 61.300781 20.054688 61.324219 19.382812 61.324219 19.378906 C 61.328125 19.257812 61.421875 19.167969 61.546875 19.164062 C 61.667969 19.164062 61.765625 19.261719 61.761719 19.382812 C 61.761719 19.414062 61.746094 20.167969 60.972656 21.425781 C 60.894531 21.550781 60.863281 21.65625 60.890625 21.703125 C 60.976562 21.832031 61.4375 21.871094 61.800781 21.828125 C 61.917969 21.816406 62.027344 21.898438 62.042969 22.019531 C 62.058594 22.140625 61.972656 22.25 61.851562 22.261719 C 61.796875 22.269531 61.664062 22.28125 61.5 22.28125 Z M 61.5 22.28125 "/>
<path style=" stroke:none;fill-rule:nonzero;fill:rgb(39.607843%,21.568627%,9.803922%);fill-opacity:1;" d="M 60.9375 19.117188 C 60.894531 19.117188 60.847656 19.101562 60.8125 19.074219 C 60.21875 18.582031 59.519531 19.003906 59.511719 19.007812 C 59.421875 19.066406 59.300781 19.035156 59.242188 18.945312 C 59.1875 18.851562 59.214844 18.730469 59.308594 18.675781 C 59.347656 18.652344 60.257812 18.105469 61.0625 18.773438 C 61.144531 18.839844 61.15625 18.964844 61.089844 19.046875 C 61.050781 19.09375 60.992188 19.117188 60.9375 19.117188 Z M 60.9375 19.117188 "/>
<path style=" stroke:none;fill-rule:nonzero;fill:rgb(39.607843%,21.568627%,9.803922%);fill-opacity:1;" d="M 64.101562 19.21875 C 64.054688 19.21875 64.011719 19.203125 63.972656 19.175781 C 63.941406 19.152344 63.207031 18.652344 62.511719 19.152344 C 62.414062 19.222656 62.28125 19.199219 62.207031 19.101562 C 62.136719 19.003906 62.160156 18.867188 62.257812 18.796875 C 63.207031 18.113281 64.183594 18.789062 64.226562 18.820312 C 64.324219 18.890625 64.347656 19.027344 64.277344 19.125 C 64.234375 19.183594 64.167969 19.21875 64.101562 19.21875 Z M 64.101562 19.21875 "/>
<path style=" stroke:none;fill-rule:nonzero;fill:rgb(39.607843%,21.568627%,9.803922%);fill-opacity:1;" d="M 60.820312 20.40625 C 60.820312 20.722656 60.628906 20.984375 60.394531 20.984375 C 60.164062 20.984375 59.972656 20.722656 59.972656 20.40625 C 59.972656 20.085938 60.164062 19.824219 60.394531 19.824219 C 60.628906 19.824219 60.820312 20.085938 60.820312 20.40625 Z M 60.820312 20.40625 "/>
<path style=" stroke:none;fill-rule:nonzero;fill:rgb(39.607843%,21.568627%,9.803922%);fill-opacity:1;" d="M 63.191406 20.480469 C 63.191406 20.800781 63 21.058594 62.769531 21.058594 C 62.535156 21.058594 62.347656 20.800781 62.347656 20.480469 C 62.347656 20.160156 62.535156 19.902344 62.769531 19.902344 C 63 19.902344 63.191406 20.160156 63.191406 20.480469 Z M 63.191406 20.480469 "/>
<path style=" stroke:none;fill-rule:nonzero;fill:rgb(90.196078%,54.901961%,41.960784%);fill-opacity:1;" d="M 61.425781 17.046875 C 61.425781 17.046875 63.007812 18.386719 65.375 17.410156 C 67.738281 16.4375 61.335938 16.09375 60.050781 16.085938 C 59.9375 16.085938 59.839844 16.085938 59.742188 16.085938 C 59.527344 16.4375 59.359375 16.851562 59.226562 17.324219 C 59.582031 17.523438 60.328125 17.738281 61.425781 17.046875 Z M 61.425781 17.046875 "/>
<path style=" stroke:none;fill-rule:nonzero;fill:rgb(39.607843%,21.568627%,9.803922%);fill-opacity:1;" d="M 70.4375 19.886719 C 70.058594 20.640625 69.644531 21.117188 69.644531 21.117188 C 69.644531 21.117188 68.933594 22.601562 67.011719 23.921875 L 67.277344 21.386719 L 66.265625 21.488281 C 66.265625 21.488281 65.960938 19.394531 65.859375 18.546875 C 65.757812 17.707031 65.050781 17.335938 65.050781 17.335938 C 65.050781 17.335938 62.789062 17.707031 61.402344 16.828125 C 61.402344 16.828125 60.355469 17.4375 59.746094 16.929688 C 59.746094 16.929688 58.226562 16.996094 57.617188 15.375 C 57.34375 14.636719 57.445312 14.078125 57.734375 13.699219 C 58.074219 13.246094 58.675781 13.042969 59.207031 13.078125 C 59.207031 13.078125 60.417969 11.601562 62.179688 11.625 C 63.441406 11.644531 63.933594 12.199219 63.933594 12.199219 C 63.933594 12.199219 65.253906 11.894531 66.910156 12.265625 C 68.5625 12.636719 68.496094 13.820312 68.496094 13.820312 C 68.496094 13.820312 70.585938 14.394531 70.992188 16.757812 C 71.199219 17.972656 70.839844 19.085938 70.4375 19.886719 Z M 70.4375 19.886719 "/>
<path style=" stroke:none;fill-rule:nonzero;fill:rgb(45.882353%,25.882353%,14.901961%);fill-opacity:1;" d="M 68.261719 14.117188 C 68.261719 14.117188 69.746094 14.410156 70.515625 15.890625 C 71.285156 17.375 70.429688 18.753906 70.429688 18.753906 C 70.429688 18.753906 70.6875 15.71875 68.261719 14.117188 Z M 68.261719 14.117188 "/>
<path style=" stroke:none;fill-rule:nonzero;fill:rgb(45.882353%,25.882353%,14.901961%);fill-opacity:1;" d="M 65.453125 13.285156 C 65.453125 13.285156 66.914062 12.929688 68.105469 13.773438 C 69.296875 14.613281 68.957031 16.003906 68.957031 16.003906 C 68.957031 16.003906 68.210938 13.570312 65.453125 13.285156 Z M 65.453125 13.285156 "/>
<path style=" stroke:none;fill-rule:nonzero;fill:rgb(45.882353%,25.882353%,14.901961%);fill-opacity:1;" d="M 67.890625 13.648438 C 67.890625 13.648438 67.730469 12.316406 64.75 12.492188 C 64.75 12.492188 67.078125 12.902344 67.890625 13.648438 Z M 67.890625 13.648438 "/>
<path style=" stroke:none;fill-rule:nonzero;fill:rgb(27.058824%,17.254902%,8.235294%);fill-opacity:1;" d="M 69.90625 19.921875 C 69.207031 19.824219 69.355469 19.140625 69.355469 19.140625 C 69.355469 19.140625 69.011719 19.304688 68.105469 18.949219 C 67.195312 18.589844 68.039062 17.011719 68.039062 17.011719 C 68.039062 17.011719 67.679688 17.257812 66.332031 17.144531 C 64.984375 17.03125 64.15625 15.566406 64.15625 15.566406 C 64.15625 15.566406 63.796875 16.023438 62.757812 16.007812 C 61.71875 15.988281 61.683594 15.113281 61.683594 15.113281 C 61.683594 15.113281 61.230469 15.632812 59.554688 15.582031 C 58.203125 15.542969 57.828125 14.210938 57.734375 13.699219 C 57.445312 14.078125 57.339844 14.632812 57.617188 15.375 C 58.226562 16.996094 59.746094 16.929688 59.746094 16.929688 C 60.355469 17.433594 61.402344 16.828125 61.402344 16.828125 C 62.785156 17.703125 65.050781 17.332031 65.050781 17.332031 C 65.050781 17.332031 65.757812 17.703125 65.859375 18.550781 C 65.960938 19.394531 66.265625 21.488281 66.265625 21.488281 L 67.277344 21.386719 L 67.007812 23.917969 C 68.933594 22.601562 69.640625 21.117188 69.640625 21.117188 C 69.640625 21.117188 70.058594 20.640625 70.4375 19.882812 C 70.273438 19.925781 70.09375 19.949219 69.90625 19.921875 Z M 69.90625 19.921875 "/>
<path style=" stroke:none;fill-rule:nonzero;fill:rgb(96.862745%,61.960784%,47.45098%);fill-opacity:1;" d="M 66.855469 20.726562 C 66.855469 20.726562 67.972656 19.664062 69.085938 20.273438 C 70.199219 20.878906 68.476562 24.324219 67.007812 24.273438 C 65.539062 24.222656 66.855469 20.726562 66.855469 20.726562 Z M 66.855469 20.726562 "/>
<path style=" stroke:none;fill-rule:nonzero;fill:rgb(39.607843%,21.568627%,9.803922%);fill-opacity:1;" d="M 67.320312 23.335938 C 67.234375 23.335938 67.15625 23.289062 67.121094 23.207031 C 67.027344 23.007812 67.164062 22.808594 67.296875 22.617188 C 67.507812 22.3125 67.496094 22.269531 67.445312 22.234375 C 67.179688 22.039062 67.046875 21.828125 67.046875 21.601562 C 67.050781 21.351562 67.214844 21.109375 67.554688 20.871094 C 68.152344 20.449219 68.707031 20.621094 68.730469 20.628906 C 68.84375 20.667969 68.90625 20.789062 68.871094 20.90625 C 68.832031 21.019531 68.710938 21.082031 68.597656 21.046875 C 68.574219 21.039062 68.214844 20.9375 67.808594 21.226562 C 67.601562 21.371094 67.484375 21.511719 67.484375 21.605469 C 67.484375 21.679688 67.5625 21.777344 67.703125 21.878906 C 68.128906 22.191406 67.808594 22.648438 67.65625 22.867188 C 67.613281 22.929688 67.550781 23.023438 67.53125 23.066406 C 67.554688 23.167969 67.503906 23.273438 67.410156 23.316406 C 67.378906 23.332031 67.347656 23.335938 67.320312 23.335938 Z M 67.519531 23.027344 Z M 67.519531 23.027344 "/>
<path style=" stroke:none;fill-rule:nonzero;fill:rgb(39.607843%,21.568627%,9.803922%);fill-opacity:1;" d="M 66.640625 26.496094 C 66.683594 26.324219 66.707031 26.140625 66.707031 25.945312 C 66.707031 24.425781 66.570312 22.769531 66.570312 22.769531 L 66.046875 22.996094 C 66.046875 22.996094 65.996094 24.019531 64.949219 23.921875 C 63.898438 23.820312 63.363281 23.144531 62.414062 22.703125 C 61.46875 22.265625 60.960938 22.535156 60.960938 22.535156 C 60.960938 22.535156 60.421875 22.128906 58.835938 22.972656 C 58.835938 22.972656 58.152344 24.0625 57.679688 25.046875 C 57.457031 25.515625 57.28125 25.957031 57.246094 26.25 C 57.144531 27.164062 57.652344 28.375 61.570312 28.375 C 64.988281 28.375 66.347656 27.683594 66.640625 26.496094 Z M 66.640625 26.496094 "/>
<path style=" stroke:none;fill-rule:nonzero;fill:rgb(27.058824%,17.254902%,8.235294%);fill-opacity:1;" d="M 66.640625 26.496094 C 65.898438 26.953125 64.175781 27.695312 60.96875 27.558594 C 58.089844 27.4375 57.628906 26.054688 57.679688 25.046875 C 57.457031 25.515625 57.28125 25.957031 57.246094 26.25 C 57.144531 27.160156 57.652344 28.378906 61.570312 28.378906 C 64.988281 28.378906 66.351562 27.683594 66.640625 26.496094 Z M 66.640625 26.496094 "/>
<path style=" stroke:none;fill-rule:nonzero;fill:rgb(96.862745%,61.960784%,47.45098%);fill-opacity:1;" d="M 63.359375 24.019531 C 62.957031 23.3125 60.792969 22.164062 59.476562 23.414062 C 59.476562 23.414062 58.363281 25.066406 58.769531 25.710938 C 59.171875 26.351562 59.917969 25.371094 59.917969 25.371094 L 60.761719 25.371094 C 60.761719 25.371094 61.03125 26.585938 62.347656 26.65625 C 63.664062 26.722656 63.765625 24.730469 63.359375 24.019531 Z M 63.359375 24.019531 "/>
<path style=" stroke:none;fill-rule:nonzero;fill:rgb(100%,100%,100%);fill-opacity:1;" d="M 59.46875 23.789062 C 59.46875 23.789062 60.726562 24.089844 62.945312 23.847656 C 62.945312 23.847656 62.148438 24.804688 60.757812 24.804688 C 59.371094 24.804688 59.46875 23.789062 59.46875 23.789062 Z M 59.46875 23.789062 "/>
<path style=" stroke:none;fill-rule:nonzero;fill:rgb(100%,76.470588%,20%);fill-opacity:1;" d="M 79.324219 73.988281 C 78.367188 77.332031 75.371094 81.417969 66.449219 81.417969 C 66.449219 81.417969 66.496094 80.472656 67.261719 79.265625 C 67.886719 78.277344 68.996094 77.109375 70.960938 76.148438 C 75.316406 74.023438 73.746094 69.714844 79.675781 69.714844 C 79.675781 69.714844 79.988281 71.675781 79.324219 73.988281 Z M 79.324219 73.988281 "/>
<path style=" stroke:none;fill-rule:nonzero;fill:rgb(100%,76.470588%,20%);fill-opacity:1;" d="M 66.988281 64.617188 L 52.214844 64.617188 L 52.214844 63.066406 L 68.28125 63.839844 C 68.546875 63.851562 68.609375 64.210938 68.367188 64.316406 L 68.292969 64.347656 C 67.878906 64.527344 67.4375 64.617188 66.988281 64.617188 Z M 66.988281 64.617188 "/>
<path style=" stroke:none;fill-rule:nonzero;fill:rgb(100%,76.470588%,20%);fill-opacity:1;" d="M 57.617188 47.898438 L 57.617188 63.230469 C 57.617188 63.742188 57.339844 64.179688 56.929688 64.421875 C 56.722656 64.542969 56.488281 64.613281 56.234375 64.613281 L 33.335938 64.613281 C 32.574219 64.613281 31.953125 63.996094 31.953125 63.230469 L 31.953125 47.898438 C 31.953125 47.617188 32.039062 47.351562 32.183594 47.128906 C 32.433594 46.757812 32.855469 46.515625 33.335938 46.515625 L 56.234375 46.515625 C 57 46.515625 57.617188 47.136719 57.617188 47.898438 Z M 57.617188 47.898438 "/>
<path style=" stroke:none;fill-rule:nonzero;fill:rgb(100%,79.607843%,35.294118%);fill-opacity:1;" d="M 56.234375 46.515625 L 33.335938 46.515625 C 32.855469 46.515625 32.433594 46.757812 32.183594 47.132812 C 32.390625 47.011719 32.628906 46.9375 32.882812 46.9375 L 55.777344 46.9375 C 56.542969 46.9375 57.164062 47.558594 57.164062 48.324219 L 57.164062 63.652344 C 57.164062 63.9375 57.078125 64.199219 56.929688 64.421875 C 57.339844 64.179688 57.617188 63.742188 57.617188 63.230469 L 57.617188 47.898438 C 57.617188 47.136719 57 46.515625 56.234375 46.515625 Z M 56.234375 46.515625 "/>
<path style=" stroke:none;fill-rule:nonzero;fill:rgb(95.294118%,70.980392%,15.294118%);fill-opacity:1;" d="M 33.925781 46.515625 L 33.339844 46.515625 C 32.574219 46.515625 31.953125 47.132812 31.953125 47.898438 L 31.953125 63.230469 C 31.953125 63.996094 32.574219 64.617188 33.339844 64.617188 L 56.234375 64.617188 C 57 64.617188 57.621094 63.996094 57.621094 63.230469 L 57.621094 61.992188 C 38.046875 60.382812 34.542969 50.464844 33.925781 46.515625 Z M 33.925781 46.515625 "/>
<path style=" stroke:none;fill-rule:nonzero;fill:rgb(52.54902%,20.392157%,11.764706%);fill-opacity:1;" d="M 104.15625 65.320312 C 103.136719 64.871094 102.003906 64.617188 100.816406 64.617188 L 29.183594 64.617188 C 24.59375 64.617188 20.875 68.339844 20.875 72.925781 L 20.875 118.382812 L 23.980469 118.382812 L 23.980469 73.058594 C 23.980469 70.109375 26.367188 67.722656 29.316406 67.722656 L 100.679688 67.722656 C 101.101562 67.722656 101.511719 67.777344 101.90625 67.867188 C 104.261719 68.421875 106.015625 70.535156 106.015625 73.058594 L 106.015625 118.382812 L 109.125 118.382812 L 109.125 72.925781 C 109.125 69.527344 107.082031 66.605469 104.15625 65.320312 Z M 104.15625 65.320312 "/>
<path style=" stroke:none;fill-rule:nonzero;fill:rgb(46.666667%,16.078431%,9.019608%);fill-opacity:1;" d="M 20.875 118.382812 L 23.980469 118.382812 L 23.980469 98.417969 C 22.957031 98.496094 21.921875 98.566406 20.875 98.632812 Z M 20.875 118.382812 "/>
<path style=" stroke:none;fill-rule:nonzero;fill:rgb(46.666667%,16.078431%,9.019608%);fill-opacity:1;" d="M 104.15625 65.320312 C 103.496094 66.117188 102.746094 66.96875 101.90625 67.867188 C 104.261719 68.421875 106.015625 70.535156 106.015625 73.058594 L 106.015625 118.382812 L 109.125 118.382812 L 109.125 72.925781 C 109.125 69.527344 107.082031 66.605469 104.15625 65.320312 Z M 104.15625 65.320312 "/>
<path style=" stroke:none;fill-rule:nonzero;fill:rgb(91.764706%,69.019608%,12.54902%);fill-opacity:1;" d="M 84.449219 42.664062 L 89.414062 42.664062 L 89.414062 64.617188 L 84.449219 64.617188 Z M 84.449219 42.664062 "/>
<path style=" stroke:none;fill-rule:nonzero;fill:rgb(100%,78.823529%,32.54902%);fill-opacity:1;" d="M 85.941406 44.234375 L 87.925781 44.234375 L 87.925781 49.140625 L 85.941406 49.140625 Z M 85.941406 44.234375 "/>
<path style=" stroke:none;fill-rule:nonzero;fill:rgb(79.215686%,54.117647%,16.470588%);fill-opacity:1;" d="M 89.414062 64.617188 L 84.449219 64.617188 L 84.449219 55.566406 L 89.414062 52.253906 Z M 89.414062 64.617188 "/>
<path style=" stroke:none;fill-rule:nonzero;fill:rgb(91.764706%,69.019608%,12.54902%);fill-opacity:1;" d="M 89.804688 42.664062 L 94.769531 42.664062 L 94.769531 64.617188 L 89.804688 64.617188 Z M 89.804688 42.664062 "/>
<path style=" stroke:none;fill-rule:nonzero;fill:rgb(100%,78.823529%,32.54902%);fill-opacity:1;" d="M 91.296875 44.234375 L 93.277344 44.234375 L 93.277344 49.140625 L 91.296875 49.140625 Z M 91.296875 44.234375 "/>
<path style=" stroke:none;fill-rule:nonzero;fill:rgb(79.215686%,54.117647%,16.470588%);fill-opacity:1;" d="M 94.769531 64.617188 L 89.804688 64.617188 L 89.804688 55.566406 L 94.769531 52.253906 Z M 94.769531 64.617188 "/>
<path style=" stroke:none;fill-rule:nonzero;fill:rgb(91.764706%,69.019608%,12.54902%);fill-opacity:1;" d="M 95.210938 42.664062 L 100.175781 42.664062 L 100.175781 64.617188 L 95.210938 64.617188 Z M 95.210938 42.664062 "/>
<path style=" stroke:none;fill-rule:nonzero;fill:rgb(100%,78.823529%,32.54902%);fill-opacity:1;" d="M 96.652344 44.234375 L 98.632812 44.234375 L 98.632812 49.140625 L 96.652344 49.140625 Z M 96.652344 44.234375 "/>
<path style=" stroke:none;fill-rule:nonzero;fill:rgb(79.215686%,54.117647%,16.470588%);fill-opacity:1;" d="M 100.175781 64.617188 L 95.210938 64.617188 L 95.210938 55.566406 L 100.175781 52.253906 Z M 100.175781 64.617188 "/>
</g>
</svg>
